<svg version="1.1" viewBox="0.0 0.0 960.0 720.0" fill="none" stroke="none" stroke-linecap="square" stroke-miterlimit="10" xmlns:xlink="http://www.w3.org/1999/xlink" xmlns="http://www.w3.org/2000/svg"><clipPath id="p.0"><path d="m0 0l960.0 0l0 720.0l-960.0 0l0 -720.0z" clip-rule="nonzero"/></clipPath><g clip-path="url(#p.0)"><path fill="#000000" fill-opacity="0.0" d="m0 0l960.0 0l0 720.0l-960.0 0z" fill-rule="evenodd"/><path fill="#3c78d8" d="m235.58614 415.17212l254.92232 -151.5321l20.49649 -7.668045l37.66797 39.394302l16.027222 -66.501495l71.80353 -74.18977l-99.61224 38.148483l-81.384766 -7.4230194l32.216827 39.778778l-15.195496 18.732986z" fill-rule="evenodd"/><path fill="#000000" fill-opacity="0.0" d="m176.6063 181.93701l510.01578 0l0 183.87402l-510.01578 0z" fill-rule="evenodd"/><path fill="#ffffff" d="m247.69684 267.737l12.265625 -57.6875l10.5625 0l-10.0 47.046875l47.03125 0l-2.265625 10.640625l-57.59375 0zm73.19495 0q-3.03125 0 -5.234375 -1.515625q-2.203125 -1.53125 -3.1875 -4.046875q-0.984375 -2.515625 -0.34375 -5.5625l7.515625 -35.359375q0.65625 -3.03125 2.703125 -5.546875q2.0625 -2.53125 4.90625 -4.046875q2.84375 -1.515625 5.875 -1.515625l35.359375 0q3.046875 0 5.234375 1.515625q2.203125 1.515625 3.1875 4.046875q1.0 2.515625 0.34375 5.546875l-7.515625 35.359375q-0.640625 3.046875 -2.703125 5.5625q-2.0625 2.515625 -4.90625 4.046875q-2.828125 1.515625 -5.875 1.515625l-35.359375 0zm2.671875 -10.640625l34.390625 0q0.40625 0 0.78125 -0.28125q0.375 -0.28125 0.46875 -0.671875l7.3125 -34.40625q0.078125 -0.40625 -0.1875 -0.671875q-0.25 -0.28125 -0.65625 -0.28125l-34.390625 0q-0.40625 0 -0.75 0.28125q-0.34375 0.265625 -0.421875 0.671875l-7.3125 34.40625q-0.09375 0.390625 0.125 0.671875q0.234375 0.28125 0.640625 0.28125zm69.256195 10.640625l0 0l-8.734375 -57.59375l11.203125 0l5.859375 38.0l21.984375 -38.0l10.3125 0l5.859375 38.0l21.90625 -38.0l11.28125 0l-33.203125 57.59375l-8.3125 0l-6.296875 -40.796875l-23.546875 40.796875l-8.3125 0zm103.65927 -18.40625l0 0l2.234375 -10.46875l32.71875 0l-2.234375 10.46875l-32.71875 0zm72.808716 18.40625q-3.03125 0 -5.234375 -1.515625q-2.203125 -1.53125 -3.1875 -4.046875q-0.96875 -2.515625 -0.328125 -5.5625l7.515625 -35.359375q0.65625 -3.03125 2.703125 -5.546875q2.046875 -2.53125 4.890625 -4.046875q2.84375 -1.515625 5.875 -1.515625l35.28125 0q3.046875 0 5.28125 1.515625q2.25 1.515625 3.234375 4.046875q0.984375 2.515625 0.328125 5.546875l-0.953125 4.484375l-10.640625 0l0.859375 -4.0q0.078125 -0.40625 -0.1875 -0.671875q-0.25 -0.28125 -0.640625 -0.28125l-34.40625 0q-0.40625 0 -0.75 0.28125q-0.328125 0.265625 -0.40625 0.671875l-7.3125 34.40625q-0.09375 0.390625 0.125 0.671875q0.21875 0.28125 0.625 0.28125l34.40625 0q0.390625 0 0.765625 -0.28125q0.375 -0.28125 0.46875 -0.671875l2.203125 -10.40625l-13.03125 0l2.265625 -10.640625l23.671875 0l-4.578125 21.515625q-0.640625 3.046875 -2.703125 5.5625q-2.046875 2.515625 -4.9375 4.046875q-2.875 1.515625 -5.921875 1.515625l-35.28125 0z" fill-rule="nonzero"/><path fill="#ffffff" d="m195.17688 363.737l12.234375 -57.59375l10.5625 0l-4.96875 23.4375l37.75 0l4.96875 -23.4375l10.5625 0l-12.234375 57.59375l-10.5625 0l4.984375 -23.4375l-37.75 0l-4.984375 23.4375l-10.5625 0zm78.954956 0q-3.03125 0 -5.234375 -1.515625q-2.203125 -1.53125 -3.1875 -4.046875q-0.984375 -2.515625 -0.34375 -5.5625l7.515625 -35.359375q0.65625 -3.03125 2.703125 -5.546875q2.0625 -2.53125 4.90625 -4.046875q2.84375 -1.515625 5.875 -1.515625l35.359375 0q3.046875 0 5.234375 1.515625q2.203125 1.515625 3.1875 4.046875q1.0 2.515625 0.34375 5.546875l-7.515625 35.359375q-0.640625 3.046875 -2.703125 5.5625q-2.0625 2.515625 -4.90625 4.046875q-2.828125 1.515625 -5.875 1.515625l-35.359375 0zm2.671875 -10.640625l34.390625 0q0.40625 0 0.78125 -0.28125q0.375 -0.28125 0.46875 -0.671875l7.3125 -34.40625q0.078125 -0.40625 -0.1875 -0.671875q-0.25 -0.28125 -0.65625 -0.28125l-34.390625 0q-0.40625 0 -0.75 0.28125q-0.34375 0.265625 -0.421875 0.671875l-7.3125 34.40625q-0.09375 0.390625 0.125 0.671875q0.234375 0.28125 0.640625 0.28125zm98.536804 10.640625l-12.953125 -20.71875l13.828125 0l11.265625 17.765625l-0.625 2.953125l-11.515625 0zm-45.921875 0l12.21875 -57.515625l46.390625 0q3.046875 0 5.28125 1.515625q2.25 1.515625 3.234375 4.046875q0.984375 2.515625 0.328125 5.546875l-3.296875 15.53125q-0.640625 3.03125 -2.703125 5.59375q-2.0625 2.5625 -4.9375 4.046875q-2.875 1.46875 -5.921875 1.46875l-35.84375 0.078125l-4.1875 19.6875l-10.5625 0zm17.984375 -30.40625l34.40625 0q0.390625 0 0.75 -0.234375q0.375 -0.234375 0.46875 -0.640625l3.125 -14.71875q0.078125 -0.40625 -0.1875 -0.671875q-0.25 -0.28125 -0.640625 -0.28125l-34.40625 0q-0.40625 0 -0.75 0.28125q-0.328125 0.265625 -0.40625 0.671875l-3.125 14.71875q-0.09375 0.40625 0.125 0.640625q0.234375 0.234375 0.640625 0.234375zm46.890564 30.40625l12.234375 -57.59375l10.484375 0l-12.234375 57.59375l-10.484375 0zm17.838745 0l0 0l2.453125 -11.515625l49.68747 -35.4375l-42.15622 0l2.25 -10.640625l57.609344 0l-2.4375 11.515625l-49.703094 35.4375l42.171844 0l-2.265625 10.640625l-57.609344 0zm77.03931 0q-3.03125 0 -5.234375 -1.515625q-2.203125 -1.53125 -3.1875 -4.046875q-0.984375 -2.515625 -0.34375 -5.5625l7.515625 -35.359375q0.65625 -3.03125 2.703125 -5.546875q2.0625 -2.53125 4.90625 -4.046875q2.84375 -1.515625 5.875 -1.515625l35.359375 0q3.046875 0 5.234375 1.515625q2.203125 1.515625 3.1875 4.046875q1.0 2.515625 0.34375 5.546875l-7.515625 35.359375q-0.640625 3.046875 -2.703125 5.5625q-2.0625 2.515625 -4.90625 4.046875q-2.828125 1.515625 -5.875 1.515625l-35.359375 0zm2.671875 -10.640625l34.390625 0q0.40625 0 0.78125 -0.28125q0.375 -0.28125 0.46875 -0.671875l7.3125 -34.40625q0.078125 -0.40625 -0.1875 -0.671875q-0.25 -0.28125 -0.65625 -0.28125l-34.390625 0q-0.40625 0 -0.75 0.28125q-0.34375 0.265625 -0.421875 0.671875l-7.3125 34.40625q-0.09375 0.390625 0.125 0.671875q0.234375 0.28125 0.640625 0.28125zm52.61493 10.640625l12.234375 -57.59375l11.59375 0l26.421875 42.078125l8.9375 -42.078125l10.640625 0l-12.234375 57.59375l-11.59375 0l-26.484375 -42.15625l-8.953125 42.15625l-10.5625 0zm77.43494 0q-3.046875 0 -5.25 -1.515625q-2.1875 -1.53125 -3.171875 -4.046875q-0.984375 -2.515625 -0.34375 -5.5625l0.9375 -4.390625l10.5625 0l-0.828125 3.921875q-0.09375 0.390625 0.125 0.671875q0.234375 0.28125 0.640625 0.28125l34.46875 0q0.40625 0 0.734375 -0.28125q0.34375 -0.28125 0.4375 -0.671875l2.328125 -10.96875q0.078125 -0.390625 -0.15625 -0.625q-0.21875 -0.25 -0.625 -0.25l-34.875 0q-3.046875 0 -5.25 -1.515625q-2.1875 -1.53125 -3.171875 -4.046875q-0.984375 -2.515625 -0.328125 -5.640625l2.515625 -11.84375q0.65625 -3.03125 2.703125 -5.546875q2.0625 -2.53125 4.890625 -4.046875q2.84375 -1.515625 5.890625 -1.515625l35.359375 0q3.046875 0 5.234375 1.515625q2.203125 1.515625 3.1875 4.046875q1.0 2.515625 0.34375 5.546875l-0.9375 4.40625l-10.640625 0l0.84375 -3.921875q0.078125 -0.40625 -0.140625 -0.671875q-0.21875 -0.28125 -0.625 -0.28125l-34.46875 0q-0.40625 0 -0.75 0.28125q-0.34375 0.265625 -0.421875 0.671875l-2.328125 10.953125q-0.09375 0.40625 0.140625 0.65625q0.234375 0.234375 0.640625 0.234375l34.953125 0q3.046875 0 5.234375 1.515625q2.1875 1.515625 3.171875 4.046875q1.0 2.515625 0.328125 5.640625l-2.515625 11.828125q-0.640625 3.046875 -2.703125 5.5625q-2.0625 2.515625 -4.90625 4.046875q-2.828125 1.515625 -5.875 1.515625l-35.359375 0z" fill-rule="nonzero"/><path fill="#ffffff" d="m415.7034 161.15749l4.958008 -14.876648l4.958008 14.876648l-4.958008 14.876633z" fill-rule="evenodd"/><path fill="#000000" fill-opacity="0.0" d="m415.7034 161.15749l9.916016 0" fill-rule="evenodd"/><path fill="#000000" fill-opacity="0.0" d="m415.7034 161.15749l4.958008 -14.876648l4.958008 14.876648l-4.958008 14.876633z" fill-rule="evenodd"/><path fill="#ffffff" d="m632.895 196.81364l4.958008 -14.876633l4.958008 14.876633l-4.958008 14.876648z" fill-rule="evenodd"/><path fill="#000000" fill-opacity="0.0" d="m632.895 196.81364l9.916016 0" fill-rule="evenodd"/><path fill="#000000" fill-opacity="0.0" d="m632.895 196.81364l4.958008 -14.876633l4.958008 14.876633l-4.958008 14.876648z" fill-rule="evenodd"/><path fill="#ffffff" d="m435.6719 149.21654l2.5393677 -7.927826l2.5393982 7.927826l-2.5393982 7.927826z" fill-rule="evenodd"/><path fill="#000000" fill-opacity="0.0" d="m435.6719 149.21654l5.078766 0" fill-rule="evenodd"/><path fill="#000000" fill-opacity="0.0" d="m435.6719 149.21654l2.5393677 -7.927826l2.5393982 7.927826l-2.5393982 7.927826z" fill-rule="evenodd"/></g></svg>